<svg width="24" height="24" viewBox="0 0 1200 1200" fill="none" xmlns="http://www.w3.org/2000/svg" xmlns:xlink="http://www.w3.org/1999/xlink">
  <defs>
    <linearGradient id="favicon-gradient" x1="217.8" y1="217.8" x2="1111.3" y2="1111.3" gradientUnits="userSpaceOnUse">
      <stop offset="0" stop-color="#9035f4"/>
      <stop offset="1" stop-color="#2e4381"/>
    </linearGradient>
    <clipPath id="favicon-clippath">
      <line x1="641.8" y1="553.2" x2="558.2" y2="713.9"/>
    </clipPath>
  </defs>
  <rect fill="url(#favicon-gradient)" width="1200" height="1200" rx="180" ry="180"/>
  <g>
    <path fill="#fff" d="M856.5,859.7c25.2-.2,52.9-4.6,79.3-14,69.3-24.5,113.2-87,111.8-159-1.4-73.5-47.6-139.7-112.5-161.1-11.6-3.8-14-8.4-15.6-20.3-7.7-58.7-36.8-97.3-86.4-120.3-37.1-17.3-88.1-21.2-128.6-6l-.6-1c-1.4-2.2-2.7-4.1-3.8-5.9-41.6-66.1-112-105.5-188.6-105.5s-64.4,7.2-94.1,21.5c-76.7,36.7-120.5,100.1-130.4,188.4-.9,8.2-3,11.1-10.3,13.7-88.5,32.7-138.3,121.3-121.2,215.5,7.7,42.4,31.1,81.6,65.8,110.3,34.8,28.8,78.2,43.3,121.9,43.3l169.5.5s309.1,0,343.6-.3ZM511.6,831h-32.1c0,0-37.9,0-37.9,0-31.7,0-63.4,0-95.1,0-80.6,0-150.2-57.1-162.1-132.8-13.3-84.9,31.8-159.2,112.1-184.8,13.3-4.2,18.6-11.4,18.9-25.5,2.2-86.2,64.7-164.1,148.6-185.3,15.7-3.9,31.7-5.9,47.7-5.9,69.1,0,133.8,37.8,168.7,98.7,4.4,7.6,8.9,15.5,19,15.5s6.7-.8,10.7-2.5c16.3-6.9,33.2-10.4,50.3-10.4,59.4,0,122.5,51.9,129.4,104.9,4,30.9,14.3,43.8,42.5,53.3,51.2,17.3,88.2,76.9,86.1,138.6-2.1,57.8-41.2,108.2-97.4,125.4-20.8,6.4-43.4,9.9-65.4,10.2-30.7.4-74.5.7-116.5.7h0c0-.1-50.9-.1-50.9-.1h-176.7Z"/>
    <g>
      <path fill="#fff" d="M486.8,720.3l-119.9-71.8c-5.8-3.7-8.8-8.7-8.8-14.9s2.9-10.5,8.8-14.6l119.9-72.1c5.8-3,11.5-3.1,16.9-.2,5.4,2.9,8.1,7.5,8.1,13.8s-2.7,11.4-8.1,14.6l-109.5,65v-14l109.5,65.6c5.4,3.5,8.1,8.2,8.1,14.3s-1.4,8-4.1,10.9c-2.7,2.9-6,4.8-9.9,5.5-3.9.8-7.6,0-11-2.1Z"/>
      <path fill="#fff" d="M713.2,720.3c-3.5,2.2-7.1,2.9-11,2.1-3.9-.8-7.2-2.6-9.9-5.5-2.7-2.9-4.1-6.5-4.1-10.9s2.7-10.8,8.1-14.3l109.5-65.6v14l-109.5-65c-5.4-3.2-8.1-8.1-8.1-14.6s2.7-10.9,8.1-13.8c5.4-2.9,11-2.9,16.9.2l119.9,72.1c5.8,4.1,8.8,9,8.8,14.6s-2.9,11.3-8.8,14.9l-119.9,71.8Z"/>
    </g>
    <g>
      <g>
        <line fill="#fff" x1="641.8" y1="553.2" x2="558.2" y2="713.9"/>
        <g clip-path="url(#favicon-clippath)">
          <polygon fill="#fff" points="558.2 713.9 641.8 630.3 641.8 713.9 558.2 713.9"/>
          <polygon fill="#fff" points="558.2 710.9 641.8 627.3 641.8 630.3 558.2 713.9 558.2 710.9"/>
          <polygon fill="#fff" points="558.2 707.8 641.8 624.2 641.8 627.3 558.2 710.9 558.2 707.8"/>
          <polygon fill="#fff" points="558.2 704.7 641.8 621.1 641.8 624.2 558.2 707.8 558.2 704.7"/>
          <polygon fill="#fff" points="558.2 701.6 641.8 618 641.8 621.1 558.2 704.7 558.2 701.6"/>
          <polygon fill="#fff" points="558.2 698.5 641.8 614.9 641.8 618 558.2 701.6 558.2 698.5"/>
          <polygon fill="#fff" points="558.2 695.4 641.8 611.8 641.8 614.9 558.2 698.5 558.2 695.4"/>
          <polygon fill="#fff" points="558.2 692.4 641.8 608.8 641.8 611.8 558.2 695.4 558.2 692.4"/>
          <polygon fill="#fff" points="558.2 689.3 641.8 605.7 641.8 608.8 558.2 692.4 558.2 689.3"/>
          <polygon fill="#fff" points="558.2 686.2 641.8 602.6 641.8 605.7 558.2 689.3 558.2 686.2"/>
          <polygon fill="#fff" points="558.2 683.1 641.8 599.5 641.8 602.6 558.2 686.2 558.2 683.1"/>
          <polygon fill="#fff" points="558.2 680 641.8 596.4 641.8 599.5 558.2 683.1 558.2 680"/>
          <polygon fill="#fff" points="558.2 676.9 641.8 593.3 641.8 596.4 558.2 680 558.2 676.9"/>
          <polygon fill="#fff" points="558.2 673.8 641.8 590.3 641.8 593.3 558.2 676.9 558.2 673.8"/>
          <polygon fill="#fff" points="558.2 670.8 641.8 587.2 641.8 590.3 558.2 673.8 558.2 670.8"/>
          <polygon fill="#fff" points="558.2 667.7 641.8 584.1 641.8 587.2 558.2 670.8 558.2 667.7"/>
          <polygon fill="#fff" points="558.2 664.6 641.8 581 641.8 584.1 558.2 667.7 558.2 664.6"/>
          <polygon fill="#fff" points="558.2 661.5 641.8 577.9 641.8 581 558.2 664.6 558.2 661.5"/>
          <polygon fill="#fff" points="558.2 658.4 641.8 574.8 641.8 577.9 558.2 661.5 558.2 658.4"/>
          <polygon fill="#fff" points="558.2 655.3 641.8 571.7 641.8 574.8 558.2 658.4 558.2 655.3"/>
          <polygon fill="#fff" points="558.2 652.3 641.8 568.7 641.8 571.7 558.2 655.3 558.2 652.3"/>
          <polygon fill="#fff" points="558.2 649.2 641.8 565.6 641.8 568.7 558.2 652.3 558.2 649.2"/>
          <polygon fill="#fff" points="558.2 646.1 641.8 562.5 641.8 565.6 558.2 649.2 558.2 646.1"/>
          <polygon fill="#fff" points="558.2 643 641.8 559.4 641.8 562.5 558.2 646.1 558.2 643"/>
          <polygon fill="#fff" points="558.2 639.9 641.8 556.3 641.8 559.4 558.2 643 558.2 639.9"/>
          <polygon fill="#fff" points="558.2 636.8 641.8 553.2 641.8 556.3 558.2 639.9 558.2 636.8"/>
          <polygon fill="#fff" points="641.8 553.2 558.2 636.8 558.2 553.2 641.8 553.2"/>
        </g>
      </g>
      <path fill="#fff" d="M558.2,731.8c-2.8,0-5.6-.6-8.2-2-8.7-4.5-12.1-15.3-7.6-24.1l83.6-160.7c4.5-8.7,15.3-12.1,24.1-7.6,8.7,4.5,12.1,15.3,7.6,24.1l-83.6,160.7c-3.2,6.1-9.4,9.6-15.8,9.6Z"/>
    </g>
  </g>
</svg>
