<?xml version="1.0" encoding="UTF-8"?>
<svg id="Layer_2" data-name="Layer 2" xmlns="http://www.w3.org/2000/svg" xmlns:xlink="http://www.w3.org/1999/xlink" viewBox="0 0 945.02 211.27">
  <defs>
    <style>
      .cls-1 {
        fill: url(#linear-gradient-8);
      }

      .cls-2 {
        fill: url(#linear-gradient-7);
      }

      .cls-3 {
        fill: url(#linear-gradient-5);
      }

      .cls-4 {
        fill: url(#linear-gradient-6);
      }

      .cls-5 {
        fill: url(#linear-gradient-9);
      }

      .cls-6 {
        fill: url(#linear-gradient-4);
      }

      .cls-7 {
        fill: url(#linear-gradient-3);
      }

      .cls-8 {
        fill: url(#linear-gradient-2);
      }

      .cls-9 {
        fill: url(#linear-gradient);
      }

      .cls-10 {
        fill: url(#linear-gradient-10);
      }

      .cls-11 {
        fill: url(#linear-gradient-11);
      }

      .cls-12 {
        fill: url(#linear-gradient-12);
      }

      .cls-13 {
        fill: url(#linear-gradient-13);
      }

      .cls-14 {
        fill: url(#linear-gradient-19);
      }

      .cls-15 {
        fill: url(#linear-gradient-14);
      }

      .cls-16 {
        fill: url(#linear-gradient-21);
      }

      .cls-17 {
        fill: url(#linear-gradient-20);
      }

      .cls-18 {
        fill: url(#linear-gradient-22);
      }

      .cls-19 {
        fill: url(#linear-gradient-23);
      }

      .cls-20 {
        fill: url(#linear-gradient-28);
      }

      .cls-21 {
        fill: url(#linear-gradient-25);
      }

      .cls-22 {
        fill: url(#linear-gradient-32);
      }

      .cls-23 {
        fill: url(#linear-gradient-31);
      }

      .cls-24 {
        fill: url(#linear-gradient-33);
      }

      .cls-25 {
        fill: url(#linear-gradient-30);
      }

      .cls-26 {
        fill: url(#linear-gradient-15);
      }

      .cls-27 {
        fill: url(#linear-gradient-16);
      }

      .cls-28 {
        fill: url(#linear-gradient-17);
      }

      .cls-29 {
        fill: url(#linear-gradient-18);
      }

      .cls-30 {
        fill: url(#linear-gradient-27);
      }

      .cls-31 {
        fill: url(#linear-gradient-24);
      }

      .cls-32 {
        fill: url(#linear-gradient-26);
      }

      .cls-33 {
        fill: url(#linear-gradient-29);
      }

      .cls-34 {
        clip-path: url(#clippath);
      }
    </style>
    <linearGradient id="linear-gradient" x1="70.46" y1="53.47" x2="315.1" y2="298.11" gradientUnits="userSpaceOnUse">
      <stop offset="0" stop-color="#7c3aed"/>
      <stop offset="1" stop-color="#2a3b74"/>
    </linearGradient>
    <linearGradient id="linear-gradient-2" x1="53.44" y1="70.48" x2="298.09" y2="315.12" xlink:href="#linear-gradient"/>
    <linearGradient id="linear-gradient-3" x1="99.25" y1="24.67" x2="343.89" y2="269.32" xlink:href="#linear-gradient"/>
    <linearGradient id="linear-gradient-4" x1="76.34" y1="47.58" x2="320.98" y2="292.23" xlink:href="#linear-gradient"/>
    <linearGradient id="linear-gradient-5" x1="76.34" y1="47.58" x2="320.98" y2="292.23" xlink:href="#linear-gradient"/>
    <clipPath id="clippath">
      <line class="cls-3" x1="174.3" y1="102.06" x2="144.54" y2="159.28"/>
    </clipPath>
    <linearGradient id="linear-gradient-6" x1="69.47" y1="54.45" x2="314.12" y2="299.09" xlink:href="#linear-gradient"/>
    <linearGradient id="linear-gradient-7" x1="69.75" y1="54.17" x2="314.39" y2="298.82" xlink:href="#linear-gradient"/>
    <linearGradient id="linear-gradient-8" x1="70.3" y1="53.62" x2="314.94" y2="298.27" xlink:href="#linear-gradient"/>
    <linearGradient id="linear-gradient-9" x1="70.85" y1="53.08" x2="315.49" y2="297.72" xlink:href="#linear-gradient"/>
    <linearGradient id="linear-gradient-10" x1="71.4" y1="52.53" x2="316.04" y2="297.17" xlink:href="#linear-gradient"/>
    <linearGradient id="linear-gradient-11" x1="71.94" y1="51.98" x2="316.59" y2="296.62" xlink:href="#linear-gradient"/>
    <linearGradient id="linear-gradient-12" x1="72.49" y1="51.43" x2="317.14" y2="296.07" xlink:href="#linear-gradient"/>
    <linearGradient id="linear-gradient-13" x1="73.04" y1="50.88" x2="317.69" y2="295.52" xlink:href="#linear-gradient"/>
    <linearGradient id="linear-gradient-14" x1="73.59" y1="50.33" x2="318.23" y2="294.97" xlink:href="#linear-gradient"/>
    <linearGradient id="linear-gradient-15" x1="74.14" y1="49.78" x2="318.78" y2="294.42" xlink:href="#linear-gradient"/>
    <linearGradient id="linear-gradient-16" x1="74.69" y1="49.23" x2="319.33" y2="293.87" xlink:href="#linear-gradient"/>
    <linearGradient id="linear-gradient-17" x1="75.24" y1="48.68" x2="319.88" y2="293.32" xlink:href="#linear-gradient"/>
    <linearGradient id="linear-gradient-18" x1="75.79" y1="48.13" x2="320.43" y2="292.78" xlink:href="#linear-gradient"/>
    <linearGradient id="linear-gradient-19" x1="76.34" y1="47.58" x2="320.98" y2="292.23" xlink:href="#linear-gradient"/>
    <linearGradient id="linear-gradient-20" x1="76.89" y1="47.03" x2="321.53" y2="291.68" xlink:href="#linear-gradient"/>
    <linearGradient id="linear-gradient-21" x1="77.44" y1="46.49" x2="322.08" y2="291.13" xlink:href="#linear-gradient"/>
    <linearGradient id="linear-gradient-22" x1="77.99" y1="45.94" x2="322.63" y2="290.58" xlink:href="#linear-gradient"/>
    <linearGradient id="linear-gradient-23" x1="78.53" y1="45.39" x2="323.18" y2="290.03" xlink:href="#linear-gradient"/>
    <linearGradient id="linear-gradient-24" x1="79.08" y1="44.84" x2="323.73" y2="289.48" xlink:href="#linear-gradient"/>
    <linearGradient id="linear-gradient-25" x1="79.63" y1="44.29" x2="324.28" y2="288.93" xlink:href="#linear-gradient"/>
    <linearGradient id="linear-gradient-26" x1="80.18" y1="43.74" x2="324.82" y2="288.38" xlink:href="#linear-gradient"/>
    <linearGradient id="linear-gradient-27" x1="80.73" y1="43.19" x2="325.37" y2="287.83" xlink:href="#linear-gradient"/>
    <linearGradient id="linear-gradient-28" x1="81.28" y1="42.64" x2="325.92" y2="287.28" xlink:href="#linear-gradient"/>
    <linearGradient id="linear-gradient-29" x1="81.83" y1="42.09" x2="326.47" y2="286.74" xlink:href="#linear-gradient"/>
    <linearGradient id="linear-gradient-30" x1="82.38" y1="41.54" x2="327.02" y2="286.19" xlink:href="#linear-gradient"/>
    <linearGradient id="linear-gradient-31" x1="82.93" y1="40.99" x2="327.57" y2="285.64" xlink:href="#linear-gradient"/>
    <linearGradient id="linear-gradient-32" x1="83.2" y1="40.72" x2="327.84" y2="285.36" xlink:href="#linear-gradient"/>
    <linearGradient id="linear-gradient-33" x1="76.34" y1="47.58" x2="320.98" y2="292.23" xlink:href="#linear-gradient"/>
  </defs>
  <g id="Layer_2-2" data-name="Layer 2">
    <g>
      <g>
        <path d="M456.16,175.96c-8.57,0-16.45-1.48-23.64-4.43-7.19-2.96-13.42-7.07-18.69-12.34-5.27-5.27-9.33-11.53-12.19-18.77-2.86-7.24-4.29-15.15-4.29-23.72s1.43-16.45,4.29-23.64c2.86-7.19,6.92-13.42,12.19-18.69s11.5-9.38,18.69-12.34c7.19-2.96,15.07-4.43,23.64-4.43s16.43,1.48,23.57,4.43c7.14,2.96,13.37,7.07,18.69,12.34,5.32,5.27,9.41,11.5,12.27,18.69,2.86,7.19,4.29,15.07,4.29,23.64s-1.43,16.48-4.29,23.72c-2.86,7.24-6.95,13.5-12.27,18.77-5.32,5.27-11.55,9.38-18.69,12.34-7.14,2.96-15,4.43-23.57,4.43ZM456.16,164.14c6.7,0,12.88-1.21,18.55-3.62,5.66-2.41,10.59-5.76,14.78-10.05,4.19-4.29,7.41-9.31,9.68-15.07,2.26-5.76,3.4-11.99,3.4-18.69s-1.13-12.93-3.4-18.69c-2.27-5.76-5.49-10.79-9.68-15.07-4.19-4.29-9.11-7.61-14.78-9.97-5.67-2.36-11.85-3.55-18.55-3.55s-12.91,1.18-18.62,3.55c-5.71,2.36-10.64,5.69-14.78,9.97-4.14,4.29-7.37,9.31-9.68,15.07-2.32,5.76-3.47,12-3.47,18.69s1.16,12.93,3.47,18.69c2.31,5.76,5.54,10.79,9.68,15.07s9.06,7.64,14.78,10.05c5.71,2.42,11.92,3.62,18.62,3.62Z"/>
        <path d="M531.96,209.06c-1.97,0-3.52-.57-4.65-1.7-1.13-1.13-1.7-2.69-1.7-4.65v-69.01c.1-7.68,1.94-14.63,5.54-20.84,3.59-6.21,8.45-11.08,14.56-14.63,6.11-3.55,13-5.32,20.69-5.32s14.9,1.8,21.06,5.39c6.16,3.6,11.03,8.5,14.63,14.7,3.59,6.21,5.39,13.25,5.39,21.13s-1.73,14.78-5.17,20.98c-3.45,6.21-8.1,11.11-13.96,14.7-5.86,3.6-12.54,5.39-20.02,5.39-6.4,0-12.22-1.35-17.44-4.06-5.22-2.71-9.46-6.28-12.71-10.71v42.26c0,1.97-.57,3.52-1.7,4.65-1.13,1.13-2.64,1.7-4.51,1.7ZM566.39,163.99c5.52,0,10.47-1.3,14.85-3.92,4.38-2.61,7.83-6.18,10.34-10.71,2.51-4.53,3.77-9.61,3.77-15.22s-1.26-10.81-3.77-15.29c-2.51-4.48-5.94-8.05-10.27-10.71-4.34-2.66-9.26-3.99-14.78-3.99s-10.32,1.31-14.7,3.92c-4.38,2.61-7.81,6.18-10.27,10.71-2.46,4.53-3.69,9.66-3.69,15.37s1.23,10.69,3.69,15.22c2.46,4.53,5.86,8.1,10.2,10.71,4.33,2.61,9.21,3.92,14.63,3.92Z"/>
        <path d="M613.53,107.4c-1.68,0-3.05-.52-4.14-1.55-1.08-1.03-1.63-2.29-1.63-3.77,0-1.57.54-2.88,1.63-3.92,1.08-1.03,2.46-1.55,4.14-1.55h36.5c1.67,0,3.05.52,4.14,1.55,1.08,1.04,1.63,2.34,1.63,3.92,0,1.48-.54,2.73-1.63,3.77-1.08,1.03-2.46,1.55-4.14,1.55h-36.5ZM648.99,174.48c-5.12,0-9.7-1.23-13.74-3.69-4.04-2.46-7.22-5.86-9.53-10.2-2.32-4.33-3.47-9.21-3.47-14.63v-71.82c0-1.77.57-3.25,1.7-4.43,1.13-1.18,2.63-1.77,4.51-1.77,1.77,0,3.25.59,4.43,1.77,1.18,1.18,1.77,2.66,1.77,4.43v71.82c0,4.63,1.35,8.47,4.06,11.53,2.71,3.05,6.13,4.58,10.27,4.58h4.43c1.57,0,2.9.59,3.99,1.77,1.08,1.18,1.63,2.66,1.63,4.43,0,1.87-.67,3.38-2,4.51-1.33,1.13-3.03,1.7-5.1,1.7h-2.96Z"/>
        <path d="M673.97,79.02c-2.36,0-4.38-.86-6.06-2.59-1.68-1.72-2.51-3.77-2.51-6.13s.86-4.48,2.59-6.06c1.72-1.58,3.72-2.36,5.98-2.36s4.26.79,5.99,2.36c1.72,1.58,2.59,3.6,2.59,6.06s-.84,4.41-2.51,6.13c-1.68,1.72-3.69,2.59-6.06,2.59ZM674.12,174.48c-1.87,0-3.4-.57-4.58-1.7-1.18-1.13-1.77-2.68-1.77-4.66v-68.12c0-1.97.59-3.52,1.77-4.66,1.18-1.13,2.71-1.7,4.58-1.7s3.37.57,4.51,1.7c1.13,1.13,1.7,2.69,1.7,4.66v68.12c0,1.97-.57,3.52-1.7,4.66-1.13,1.13-2.64,1.7-4.51,1.7Z"/>
        <path d="M705,174.48c-1.87,0-3.4-.59-4.58-1.77-1.18-1.18-1.77-2.71-1.77-4.58v-102.7c0-1.87.59-3.4,1.77-4.58,1.18-1.18,2.71-1.77,4.58-1.77h26.6c8.47,0,16.23,1.4,23.27,4.21,7.04,2.81,13.13,6.8,18.25,11.97,5.12,5.17,9.06,11.26,11.82,18.25,2.76,7,4.14,14.73,4.14,23.2s-1.38,16.23-4.14,23.27c-2.76,7.04-6.7,13.15-11.82,18.32-5.12,5.17-11.21,9.16-18.25,11.97-7.04,2.81-14.8,4.21-23.27,4.21h-26.6ZM711.35,163.11h20.25c8.87,0,16.67-2,23.42-5.99,6.75-3.99,12.04-9.48,15.88-16.48,3.84-6.99,5.76-14.97,5.76-23.94s-1.92-16.94-5.76-23.94c-3.84-6.99-9.14-12.46-15.88-16.4-6.75-3.94-14.56-5.91-23.42-5.91h-20.25v92.65Z"/>
        <path d="M836.81,175.22c-8.08,0-15.22-1.75-21.43-5.25-6.21-3.5-11.08-8.35-14.63-14.56-3.55-6.21-5.32-13.3-5.32-21.28s1.67-15.19,5.02-21.35c3.35-6.16,7.95-11.01,13.82-14.56,5.86-3.55,12.63-5.32,20.32-5.32s14.01,1.7,19.58,5.1c5.56,3.4,9.85,8.1,12.86,14.11,3,6.01,4.51,12.86,4.51,20.54,0,1.68-.54,3.03-1.62,4.06-1.09,1.04-2.46,1.55-4.14,1.55h-61.77v-10.2h62.51l-6.35,4.43c.1-5.42-.89-10.29-2.96-14.63-2.07-4.33-5.02-7.73-8.87-10.2-3.84-2.46-8.42-3.69-13.74-3.69-5.62,0-10.52,1.28-14.7,3.84-4.19,2.56-7.39,6.13-9.6,10.71s-3.33,9.78-3.33,15.59,1.28,10.99,3.84,15.52c2.56,4.53,6.08,8.08,10.57,10.64,4.48,2.56,9.63,3.84,15.44,3.84,3.35,0,6.77-.59,10.27-1.77,3.5-1.18,6.28-2.66,8.35-4.43,1.18-.89,2.54-1.35,4.06-1.4,1.53-.05,2.78.37,3.77,1.26,1.48,1.28,2.24,2.66,2.29,4.14.05,1.48-.62,2.76-2,3.84-3.25,2.76-7.39,5.02-12.41,6.8s-9.8,2.66-14.33,2.66Z"/>
        <path d="M906.41,174.48c-2.56,0-4.48-1.38-5.76-4.14l-32.36-68.57c-.69-1.38-.76-2.76-.22-4.14.54-1.38,1.6-2.46,3.18-3.25,1.48-.79,2.93-.91,4.36-.37,1.43.54,2.54,1.5,3.33,2.88l30.74,66.64h-6.35l30.44-66.64c.59-1.48,1.67-2.46,3.25-2.96,1.58-.49,3.1-.39,4.58.29,1.58.79,2.61,1.9,3.1,3.33.49,1.43.44,2.79-.15,4.06l-32.07,68.71c-1.28,2.76-3.3,4.14-6.06,4.14Z"/>
      </g>
      <g>
        <path class="cls-9" d="M250.77,211.18c8.96-.06,18.82-1.65,28.24-4.99,24.68-8.74,40.31-30.97,39.83-56.61-.48-26.17-16.95-49.75-40.04-57.35-4.11-1.35-5-3-5.56-7.22-2.75-20.91-13.1-34.63-30.75-42.85-13.21-6.16-31.37-7.56-45.79-2.13l-.23-.35c-.52-.8-.95-1.46-1.36-2.11C180.3,14.04,155.2,0,127.96,0c-11.63,0-22.92,2.57-33.52,7.65-27.3,13.08-42.92,35.64-46.44,67.08-.33,2.92-1.08,3.94-3.66,4.89C12.83,91.25-4.91,122.81,1.19,156.37c2.74,15.09,11.08,29.04,23.44,39.29,12.39,10.26,27.86,15.41,43.41,15.43l60.36.19s110.07,0,122.37-.09ZM127.93,200.96h-11.44v-.02h-13.5c-11.29,0-22.58,0-33.88,0-28.69-.01-53.49-20.35-57.71-47.31-4.72-30.24,11.31-56.69,39.91-65.82,4.72-1.51,6.62-4.06,6.74-9.09.78-30.7,23.04-58.45,52.91-65.98,5.58-1.4,11.3-2.12,17-2.12,24.62,0,47.64,13.47,60.09,35.16,1.57,2.72,3.18,5.54,6.77,5.54,1.14,0,2.39-.29,3.83-.9,5.82-2.45,11.84-3.69,17.9-3.69,21.15,0,43.63,18.47,46.08,37.37,1.42,10.99,5.1,15.61,15.15,18.98,18.24,6.15,31.42,27.37,30.65,49.36-.73,20.57-14.66,38.54-34.68,44.67-7.39,2.27-15.45,3.52-23.29,3.64-10.94.15-26.54.24-41.5.25v-.04h-81.04Z"/>
        <g>
          <path class="cls-8" d="M119.1,161.54l-42.69-25.57c-2.08-1.31-3.12-3.08-3.12-5.32,0-2,1.04-3.74,3.12-5.21l42.69-25.68c2.08-1.08,4.09-1.1,6.02-.06,1.93,1.04,2.89,2.68,2.89,4.92s-.97,4.05-2.89,5.21l-38.99,23.14v-4.98l38.99,23.37c1.93,1.23,2.89,2.93,2.89,5.09,0,1.54-.48,2.83-1.45,3.88-.96,1.04-2.14,1.7-3.53,1.97-1.39.27-2.7.02-3.93-.75Z"/>
          <path class="cls-7" d="M199.74,161.54c-1.23.77-2.54,1.02-3.93.75-1.39-.27-2.56-.93-3.53-1.97-.96-1.04-1.45-2.33-1.45-3.88,0-2.16.96-3.86,2.89-5.09l38.99-23.37v4.98l-38.99-23.14c-1.93-1.16-2.89-2.89-2.89-5.21s.96-3.88,2.89-4.92c1.93-1.04,3.93-1.02,6.02.06l42.69,25.68c2.08,1.47,3.12,3.2,3.12,5.21,0,2.24-1.04,4.01-3.12,5.32l-42.69,25.57Z"/>
        </g>
        <g>
          <g>
            <line class="cls-6" x1="174.3" y1="102.06" x2="144.54" y2="159.28"/>
            <g class="cls-34">
              <polygon class="cls-4" points="144.54 159.28 174.3 129.51 174.3 159.28 144.54 159.28"/>
              <polygon class="cls-2" points="144.54 158.18 174.3 128.41 174.3 129.51 144.54 159.28 144.54 158.18"/>
              <polygon class="cls-1" points="144.54 157.08 174.3 127.32 174.3 128.41 144.54 158.18 144.54 157.08"/>
              <polygon class="cls-5" points="144.54 155.98 174.3 126.22 174.3 127.32 144.54 157.08 144.54 155.98"/>
              <polygon class="cls-10" points="144.54 154.89 174.3 125.12 174.3 126.22 144.54 155.98 144.54 154.89"/>
              <polygon class="cls-11" points="144.54 153.79 174.3 124.02 174.3 125.12 144.54 154.89 144.54 153.79"/>
              <polygon class="cls-12" points="144.54 152.69 174.3 122.92 174.3 124.02 144.54 153.79 144.54 152.69"/>
              <polygon class="cls-13" points="144.54 151.59 174.3 121.82 174.3 122.92 144.54 152.69 144.54 151.59"/>
              <polygon class="cls-15" points="144.54 150.49 174.3 120.73 174.3 121.82 144.54 151.59 144.54 150.49"/>
              <polygon class="cls-26" points="144.54 149.39 174.3 119.63 174.3 120.73 144.54 150.49 144.54 149.39"/>
              <polygon class="cls-27" points="144.54 148.3 174.3 118.53 174.3 119.63 144.54 149.39 144.54 148.3"/>
              <polygon class="cls-28" points="144.54 147.2 174.3 117.43 174.3 118.53 144.54 148.3 144.54 147.2"/>
              <polygon class="cls-29" points="144.54 146.1 174.3 116.33 174.3 117.43 144.54 147.2 144.54 146.1"/>
              <polygon class="cls-14" points="144.54 145 174.3 115.23 174.3 116.33 144.54 146.1 144.54 145"/>
              <polygon class="cls-17" points="144.54 143.9 174.3 114.14 174.3 115.23 144.54 145 144.54 143.9"/>
              <polygon class="cls-16" points="144.54 142.8 174.3 113.04 174.3 114.14 144.54 143.9 144.54 142.8"/>
              <polygon class="cls-18" points="144.54 141.71 174.3 111.94 174.3 113.04 144.54 142.8 144.54 141.71"/>
              <polygon class="cls-19" points="144.54 140.61 174.3 110.84 174.3 111.94 144.54 141.71 144.54 140.61"/>
              <polygon class="cls-31" points="144.54 139.51 174.3 109.74 174.3 110.84 144.54 140.61 144.54 139.51"/>
              <polygon class="cls-21" points="144.54 138.41 174.3 108.65 174.3 109.74 144.54 139.51 144.54 138.41"/>
              <polygon class="cls-32" points="144.54 137.31 174.3 107.55 174.3 108.65 144.54 138.41 144.54 137.31"/>
              <polygon class="cls-30" points="144.54 136.22 174.3 106.45 174.3 107.55 144.54 137.31 144.54 136.22"/>
              <polygon class="cls-20" points="144.54 135.12 174.3 105.35 174.3 106.45 144.54 136.22 144.54 135.12"/>
              <polygon class="cls-33" points="144.54 134.02 174.3 104.25 174.3 105.35 144.54 135.12 144.54 134.02"/>
              <polygon class="cls-25" points="144.54 132.92 174.3 103.15 174.3 104.25 144.54 134.02 144.54 132.92"/>
              <polygon class="cls-23" points="144.54 131.82 174.3 102.06 174.3 103.15 144.54 132.92 144.54 131.82"/>
              <polygon class="cls-22" points="174.3 102.06 144.54 131.82 144.54 102.06 174.3 102.06"/>
            </g>
          </g>
          <path class="cls-24" d="M144.53,165.63c-.99,0-1.99-.23-2.93-.72-3.11-1.62-4.32-5.45-2.7-8.57l29.77-57.22c1.62-3.11,5.45-4.32,8.56-2.7,3.11,1.62,4.32,5.45,2.7,8.57l-29.77,57.22c-1.13,2.18-3.35,3.42-5.64,3.42Z"/>
        </g>
      </g>
    </g>
  </g>
</svg>